<svg xmlns="http://www.w3.org/2000/svg" width="30.117" height="30.763" viewBox="0 0 30.117 30.763">
  <g id="Group_38" data-name="Group 38" transform="translate(-9.989 -9.675)">
    <path id="Path_4" data-name="Path 4" d="M20.3,10.5a15.848,15.848,0,0,0-8.7,7.6A12.806,12.806,0,0,0,10.3,22a15.384,15.384,0,0,0,1.3,9.9A14.752,14.752,0,0,0,15.8,37a14.088,14.088,0,0,0,5.6,2.8,15.861,15.861,0,0,0,7.8.1,13.666,13.666,0,0,0,10.2-9.7,17.065,17.065,0,0,0,.4-8.1H25.4v6h8.3a6.981,6.981,0,0,1-3.1,4.7,8.3,8.3,0,0,1-3.4,1.3,11.483,11.483,0,0,1-3.7,0,8.654,8.654,0,0,1-3.4-1.5,9.183,9.183,0,0,1-3.5-4.7,8.833,8.833,0,0,1,0-6,10.285,10.285,0,0,1,2.2-3.6,8.06,8.06,0,0,1,4.6-2.5,8.612,8.612,0,0,1,4.5.2,9.83,9.83,0,0,1,3.3,1.9L34,15.1l1.5-1.5a15.68,15.68,0,0,0-4.9-3.1A16.487,16.487,0,0,0,20.3,10.5Z" fill="#fff"/>
    <g id="Group_34" data-name="Group 34">
      <path id="Path_5" data-name="Path 5" d="M20.3,10.5a15.809,15.809,0,0,1,10.3.1,14.065,14.065,0,0,1,4.9,3.1L34,15.2,31.2,18a7.343,7.343,0,0,0-3.3-1.9,9.741,9.741,0,0,0-4.5-.2,10.388,10.388,0,0,0-4.6,2.5A9,9,0,0,0,16.6,22c-1.7-1.3-3.3-2.6-5-3.9A15.848,15.848,0,0,1,20.3,10.5Z" fill="#ea4335"/>
    </g>
    <g id="Group_35" data-name="Group 35">
      <path id="Path_6" data-name="Path 6" d="M10.3,22a19.841,19.841,0,0,1,1.3-3.9c1.7,1.3,3.3,2.6,5,3.9a8.833,8.833,0,0,0,0,6c-1.7,1.3-3.3,2.6-5,3.9A15.469,15.469,0,0,1,10.3,22Z" fill="#fbbc05"/>
    </g>
    <g id="Group_36" data-name="Group 36">
      <path id="Path_7" data-name="Path 7" d="M25.3,22.1H39.7a17.065,17.065,0,0,1-.4,8.1,14.253,14.253,0,0,1-3.9,6.4c-1.6-1.3-3.2-2.5-4.9-3.8a7.6,7.6,0,0,0,3.1-4.7H25.3Q25.3,25.1,25.3,22.1Z" fill="#4285f4"/>
    </g>
    <g id="Group_37" data-name="Group 37">
      <path id="Path_8" data-name="Path 8" d="M11.6,31.9c1.7-1.3,3.3-2.6,5-3.9a9.183,9.183,0,0,0,3.5,4.7,10.389,10.389,0,0,0,3.4,1.5,11.479,11.479,0,0,0,3.7,0,10.007,10.007,0,0,0,3.4-1.3c1.6,1.3,3.2,2.5,4.9,3.8A14.7,14.7,0,0,1,29.2,40a15.832,15.832,0,0,1-7.8-.1,15.535,15.535,0,0,1-5.6-2.8A18.858,18.858,0,0,1,11.6,31.9Z" fill="#34a853"/>
    </g>
  </g>
</svg>
