<svg xmlns="http://www.w3.org/2000/svg" width="50" height="44.23" viewBox="0 0 50 44.23">
  <path id="layer-group-solid" d="M1.21,12.78l22.748,9.128a2.8,2.8,0,0,0,2.079,0L48.784,12.78a1.839,1.839,0,0,0,0-3.458L26.038.193a2.8,2.8,0,0,0-2.079,0L1.21,9.321A1.84,1.84,0,0,0,1.21,12.78Zm47.576,7.626-5.673-2.275L27.328,24.461a6.3,6.3,0,0,1-4.66,0L6.883,18.132,1.21,20.406a1.837,1.837,0,0,0,0,3.455l22.748,9.121a2.807,2.807,0,0,0,2.079,0l22.749-9.121a1.837,1.837,0,0,0,0-3.455Zm0,11.04L43.134,29.18,27.328,35.518a6.3,6.3,0,0,1-4.66,0L6.862,29.18,1.21,31.446a1.837,1.837,0,0,0,0,3.455l22.748,9.121a2.807,2.807,0,0,0,2.079,0L48.785,34.9A1.837,1.837,0,0,0,48.785,31.446Z" transform="translate(0.002 0.007)" fill="#0f70b7"/>
</svg>
