<svg id="Group_78" data-name="Group 78" xmlns="http://www.w3.org/2000/svg" width="34.998" height="28.442" viewBox="0 0 34.998 28.442">
  <path id="Path_21" data-name="Path 21" d="M61.016,72.258a14.35,14.35,0,0,1-4.124,1.131,7.2,7.2,0,0,0,3.157-3.972,14.375,14.375,0,0,1-4.56,1.742,7.187,7.187,0,0,0-12.235,6.549,20.384,20.384,0,0,1-14.8-7.5,7.188,7.188,0,0,0,2.222,9.586,7.151,7.151,0,0,1-3.252-.9c0,.03,0,.06,0,.09a7.185,7.185,0,0,0,5.76,7.04,7.195,7.195,0,0,1-3.243.123,7.187,7.187,0,0,0,6.707,4.986,14.405,14.405,0,0,1-8.917,3.074,14.566,14.566,0,0,1-1.713-.1,20.323,20.323,0,0,0,11.007,3.226c13.207,0,20.429-10.941,20.429-20.429q0-.467-.021-.929A14.587,14.587,0,0,0,61.016,72.258Z" transform="translate(-26.018 -68.891)" fill="#fff" fill-rule="evenodd"/>
</svg>
